<svg xmlns="http://www.w3.org/2000/svg" viewBox="0 0 1200 675" width="1200" height="675" role="img">
  
  <defs>
    <radialGradient id="glow-v" cx="50%" cy="35%" r="60%">
      <stop offset="0%" stop-color="#00ff7a" stop-opacity="0.5"/>
      <stop offset="45%" stop-color="#00ff7a" stop-opacity="0.12"/>
      <stop offset="100%" stop-color="#00ff7a" stop-opacity="0"/>
    </radialGradient>
    <linearGradient id="fade-v" x1="0" y1="0" x2="0" y2="1">
      <stop offset="0%" stop-color="#070d0a" stop-opacity="0"/>
      <stop offset="100%" stop-color="#070d0a" stop-opacity="0.9"/>
    </linearGradient>
    <pattern id="grid-v" width="40" height="40" patternUnits="userSpaceOnUse">
      <path d="M40 0H0V40" fill="none" stroke="#ffffff" stroke-opacity="0.05" stroke-width="1"/>
    </pattern>
    <filter id="blur-v"><feGaussianBlur stdDeviation="6"/></filter>
  </defs>
  <rect width="1200" height="675" fill="#070d0a"/>
  <rect width="1200" height="675" fill="url(#grid-v)"/>
  <rect width="1200" height="675" fill="url(#glow-v)"/>
  <path d="M 430 227.5 q -40 0 -40 45 q 0 45 -40 45 q 40 0 40 45 q 0 45 0 45"
      fill="none" stroke="#00ff7a" stroke-opacity="0.7" stroke-width="3" stroke-linecap="round"/><path d="M 770 227.5 q 40 0 40 45 q 0 45 40 45 q -40 0 -40 45 q 0 45 0 45"
      fill="none" stroke="#00ff7a" stroke-opacity="0.7" stroke-width="3" stroke-linecap="round"/><line x1="600" y1="287.5" x2="510" y2="347.5" stroke="#00ff7a" stroke-opacity="0.4" stroke-width="1.5"/><line x1="600" y1="287.5" x2="690" y2="337.5" stroke="#00ff7a" stroke-opacity="0.4" stroke-width="1.5"/><line x1="510" y1="347.5" x2="570" y2="407.5" stroke="#00ff7a" stroke-opacity="0.4" stroke-width="1.5"/><line x1="690" y1="337.5" x2="650" y2="397.5" stroke="#00ff7a" stroke-opacity="0.4" stroke-width="1.5"/><line x1="570" y1="407.5" x2="650" y2="397.5" stroke="#00ff7a" stroke-opacity="0.4" stroke-width="1.5"/><circle cx="600" cy="287.5" r="9" fill="#fff"/><circle cx="510" cy="347.5" r="6" fill="#29c6ff"/><circle cx="690" cy="337.5" r="6" fill="#29c6ff"/><circle cx="570" cy="407.5" r="6" fill="#29c6ff"/><circle cx="650" cy="397.5" r="6" fill="#29c6ff"/>
  <rect width="1200" height="675" fill="url(#fade-v)"/>
  <line x1="26" y1="26" x2="48" y2="26" stroke="#ffffff" stroke-opacity="0.25" stroke-width="2"/><line x1="26" y1="26" x2="26" y2="48" stroke="#ffffff" stroke-opacity="0.25" stroke-width="2"/><line x1="1174" y1="26" x2="1152" y2="26" stroke="#ffffff" stroke-opacity="0.25" stroke-width="2"/><line x1="1174" y1="26" x2="1174" y2="48" stroke="#ffffff" stroke-opacity="0.25" stroke-width="2"/><line x1="26" y1="649" x2="48" y2="649" stroke="#ffffff" stroke-opacity="0.25" stroke-width="2"/><line x1="26" y1="649" x2="26" y2="627" stroke="#ffffff" stroke-opacity="0.25" stroke-width="2"/><line x1="1174" y1="649" x2="1152" y2="649" stroke="#ffffff" stroke-opacity="0.25" stroke-width="2"/><line x1="1174" y1="649" x2="1174" y2="627" stroke="#ffffff" stroke-opacity="0.25" stroke-width="2"/>
  <text x="600" y="635" text-anchor="middle"
    font-family="ui-monospace, monospace" font-size="20" letter-spacing="6"
    fill="#00ff7a" fill-opacity="0.65">RAG COPILOT // VS CODE</text>
</svg>