<svg xmlns="http://www.w3.org/2000/svg" viewBox="0 0 1200 675" width="1200" height="675" role="img">
  
  <defs>
    <radialGradient id="glow-a" cx="50%" cy="30%" r="60%">
      <stop offset="0%" stop-color="#00ff7a" stop-opacity="0.55"/>
      <stop offset="45%" stop-color="#00ff7a" stop-opacity="0.12"/>
      <stop offset="100%" stop-color="#00ff7a" stop-opacity="0"/>
    </radialGradient>
    <linearGradient id="fade-a" x1="0" y1="0" x2="0" y2="1">
      <stop offset="0%" stop-color="#070d0a" stop-opacity="0"/>
      <stop offset="100%" stop-color="#070d0a" stop-opacity="0.9"/>
    </linearGradient>
    <pattern id="grid-a" width="40" height="40" patternUnits="userSpaceOnUse">
      <path d="M40 0H0V40" fill="none" stroke="#ffffff" stroke-opacity="0.05" stroke-width="1"/>
    </pattern>
    <filter id="blur-a"><feGaussianBlur stdDeviation="6"/></filter>
  </defs>
  <rect width="1200" height="675" fill="#070d0a"/>
  <rect width="1200" height="675" fill="url(#grid-a)"/>
  <rect width="1200" height="675" fill="url(#glow-a)"/>
  <circle cx="600" cy="317.5" r="46" fill="#29c6ff" filter="url(#blur-a)" opacity="0.8"/>
     <circle cx="600" cy="317.5" r="30" fill="#fff" opacity="0.9"/>
     <circle cx="600" cy="317.5" r="46" fill="none" stroke="#29c6ff" stroke-width="2"/>
     <circle cx="600" cy="317.5" r="70" fill="none" stroke="#00ff7a" stroke-opacity="0.5" stroke-width="2" /><circle cx="600" cy="317.5" r="120" fill="none" stroke="#00ff7a" stroke-opacity="0.4" stroke-width="1" /><circle cx="600" cy="317.5" r="175" fill="none" stroke="#00ff7a" stroke-opacity="0.3" stroke-width="1" stroke-dasharray="6 10"/><circle cx="600" cy="317.5" r="235" fill="none" stroke="#00ff7a" stroke-opacity="0.19999999999999996" stroke-width="1" /><line x1="835" y1="317.5" x2="850" y2="317.5" stroke="#00ff7a" stroke-opacity="0.4" stroke-width="2"/><line x1="803.5159698893431" y1="435" x2="816.5063509461097" y2="442.5" stroke="#00ff7a" stroke-opacity="0.4" stroke-width="2"/><line x1="717.5" y1="521.0159698893431" x2="725" y2="534.0063509461097" stroke="#00ff7a" stroke-opacity="0.4" stroke-width="2"/><line x1="600" y1="552.5" x2="600" y2="567.5" stroke="#00ff7a" stroke-opacity="0.4" stroke-width="2"/><line x1="482.50000000000006" y1="521.0159698893431" x2="475.00000000000006" y2="534.0063509461097" stroke="#00ff7a" stroke-opacity="0.4" stroke-width="2"/><line x1="396.48403011065693" y1="435" x2="383.4936490538903" y2="442.5" stroke="#00ff7a" stroke-opacity="0.4" stroke-width="2"/><line x1="365" y1="317.50000000000006" x2="350" y2="317.50000000000006" stroke="#00ff7a" stroke-opacity="0.4" stroke-width="2"/><line x1="396.48403011065693" y1="199.99999999999997" x2="383.49364905389035" y2="192.49999999999997" stroke="#00ff7a" stroke-opacity="0.4" stroke-width="2"/><line x1="482.4999999999999" y1="113.98403011065696" x2="474.9999999999999" y2="100.99364905389038" stroke="#00ff7a" stroke-opacity="0.4" stroke-width="2"/><line x1="600" y1="82.5" x2="600" y2="67.5" stroke="#00ff7a" stroke-opacity="0.4" stroke-width="2"/><line x1="717.5" y1="113.98403011065693" x2="725" y2="100.99364905389035" stroke="#00ff7a" stroke-opacity="0.4" stroke-width="2"/><line x1="803.5159698893431" y1="199.9999999999999" x2="816.5063509461096" y2="192.4999999999999" stroke="#00ff7a" stroke-opacity="0.4" stroke-width="2"/>
     <line x1="300" y1="317.5" x2="900" y2="317.5" stroke="#fff" stroke-opacity="0.07"/>
     <line x1="600" y1="97.5" x2="600" y2="537.5" stroke="#fff" stroke-opacity="0.07"/>
  <rect width="1200" height="675" fill="url(#fade-a)"/>
  <line x1="26" y1="26" x2="48" y2="26" stroke="#ffffff" stroke-opacity="0.25" stroke-width="2"/><line x1="26" y1="26" x2="26" y2="48" stroke="#ffffff" stroke-opacity="0.25" stroke-width="2"/><line x1="1174" y1="26" x2="1152" y2="26" stroke="#ffffff" stroke-opacity="0.25" stroke-width="2"/><line x1="1174" y1="26" x2="1174" y2="48" stroke="#ffffff" stroke-opacity="0.25" stroke-width="2"/><line x1="26" y1="649" x2="48" y2="649" stroke="#ffffff" stroke-opacity="0.25" stroke-width="2"/><line x1="26" y1="649" x2="26" y2="627" stroke="#ffffff" stroke-opacity="0.25" stroke-width="2"/><line x1="1174" y1="649" x2="1152" y2="649" stroke="#ffffff" stroke-opacity="0.25" stroke-width="2"/><line x1="1174" y1="649" x2="1174" y2="627" stroke="#ffffff" stroke-opacity="0.25" stroke-width="2"/>
  <text x="600" y="635" text-anchor="middle"
    font-family="ui-monospace, monospace" font-size="20" letter-spacing="6"
    fill="#ffffff" fill-opacity="0.55">ACHILLES // AI ASSISTANT</text>
</svg>