<svg xmlns="http://www.w3.org/2000/svg" viewBox="0 0 1200 675" width="1200" height="675" role="img">
  
  <defs>
    <radialGradient id="glow-c" cx="45%" cy="35%" r="60%">
      <stop offset="0%" stop-color="#a78bfa" stop-opacity="0.5"/>
      <stop offset="45%" stop-color="#a78bfa" stop-opacity="0.12"/>
      <stop offset="100%" stop-color="#a78bfa" stop-opacity="0"/>
    </radialGradient>
    <linearGradient id="fade-c" x1="0" y1="0" x2="0" y2="1">
      <stop offset="0%" stop-color="#070d0a" stop-opacity="0"/>
      <stop offset="100%" stop-color="#070d0a" stop-opacity="0.9"/>
    </linearGradient>
    <pattern id="grid-c" width="40" height="40" patternUnits="userSpaceOnUse">
      <path d="M40 0H0V40" fill="none" stroke="#ffffff" stroke-opacity="0.05" stroke-width="1"/>
    </pattern>
    <filter id="blur-c"><feGaussianBlur stdDeviation="6"/></filter>
  </defs>
  <rect width="1200" height="675" fill="#070d0a"/>
  <rect width="1200" height="675" fill="url(#grid-c)"/>
  <rect width="1200" height="675" fill="url(#glow-c)"/>
  <rect x="390" y="202.5" width="420" height="230" rx="14" fill="#0f0a16" stroke="#a78bfa" stroke-opacity="0.5"/>
     <rect x="390" y="202.5" width="420" height="40" rx="14" fill="#171022"/>
     <circle cx="414" cy="222.5" r="5" fill="#a78bfa"/>
     <circle cx="434" cy="222.5" r="5" fill="#fff" fill-opacity="0.3"/>
     <circle cx="454" cy="222.5" r="5" fill="#fff" fill-opacity="0.3"/>
     <text x="414" y="268.5" font-family="ui-monospace,monospace" font-size="16" fill="#c4b5fd">&gt; explain</text>
     <rect x="414" y="272.5" width="260" height="8" rx="4" fill="#fff" fill-opacity="0.18"/><rect x="414" y="302.5" width="180" height="8" rx="4" fill="#fff" fill-opacity="0.16"/><rect x="414" y="332.5" width="300" height="8" rx="4" fill="#fff" fill-opacity="0.13999999999999999"/><rect x="414" y="362.5" width="140" height="8" rx="4" fill="#fff" fill-opacity="0.12"/>
     <g transform="translate(770, 402.5)">
       <rect x="0" y="0" width="120" height="64" rx="14" fill="#a78bfa" opacity="0.9"/>
       <rect x="14" y="18" width="70" height="7" rx="3" fill="#fff" fill-opacity="0.85"/>
       <rect x="14" y="34" width="48" height="7" rx="3" fill="#fff" fill-opacity="0.65"/>
     </g>
  <rect width="1200" height="675" fill="url(#fade-c)"/>
  <line x1="26" y1="26" x2="48" y2="26" stroke="#ffffff" stroke-opacity="0.25" stroke-width="2"/><line x1="26" y1="26" x2="26" y2="48" stroke="#ffffff" stroke-opacity="0.25" stroke-width="2"/><line x1="1174" y1="26" x2="1152" y2="26" stroke="#ffffff" stroke-opacity="0.25" stroke-width="2"/><line x1="1174" y1="26" x2="1174" y2="48" stroke="#ffffff" stroke-opacity="0.25" stroke-width="2"/><line x1="26" y1="649" x2="48" y2="649" stroke="#ffffff" stroke-opacity="0.25" stroke-width="2"/><line x1="26" y1="649" x2="26" y2="627" stroke="#ffffff" stroke-opacity="0.25" stroke-width="2"/><line x1="1174" y1="649" x2="1152" y2="649" stroke="#ffffff" stroke-opacity="0.25" stroke-width="2"/><line x1="1174" y1="649" x2="1174" y2="627" stroke="#ffffff" stroke-opacity="0.25" stroke-width="2"/>
  <text x="600" y="635" text-anchor="middle"
    font-family="ui-monospace, monospace" font-size="20" letter-spacing="6"
    fill="#a78bfa" fill-opacity="0.65">LLM ASSISTANT // MEMORY</text>
</svg>