<svg xmlns="http://www.w3.org/2000/svg" viewBox="0 0 1200 675" width="1200" height="675" role="img">
  
  <defs>
    <radialGradient id="glow-s" cx="50%" cy="35%" r="60%">
      <stop offset="0%" stop-color="#00ff7a" stop-opacity="0.55"/>
      <stop offset="45%" stop-color="#00ff7a" stop-opacity="0.12"/>
      <stop offset="100%" stop-color="#00ff7a" stop-opacity="0"/>
    </radialGradient>
    <linearGradient id="fade-s" x1="0" y1="0" x2="0" y2="1">
      <stop offset="0%" stop-color="#070d0a" stop-opacity="0"/>
      <stop offset="100%" stop-color="#070d0a" stop-opacity="0.9"/>
    </linearGradient>
    <pattern id="grid-s" width="40" height="40" patternUnits="userSpaceOnUse">
      <path d="M40 0H0V40" fill="none" stroke="#ffffff" stroke-opacity="0.05" stroke-width="1"/>
    </pattern>
    <filter id="blur-s"><feGaussianBlur stdDeviation="6"/></filter>
  </defs>
  <rect width="1200" height="675" fill="#070d0a"/>
  <rect width="1200" height="675" fill="url(#grid-s)"/>
  <rect width="1200" height="675" fill="url(#glow-s)"/>
  <rect x="420" y="202.5" width="360" height="230" rx="14" fill="#140e10" stroke="#00ff7a" stroke-opacity="0.5"/>
     <rect x="420" y="202.5" width="360" height="34" rx="14" fill="#1a1316"/>
     <circle cx="444" cy="219.5" r="6" fill="#29c6ff"/>
     <circle cx="466" cy="219.5" r="6" fill="#fff" fill-opacity="0.3"/>
     <rect x="424" y="246.5" width="52" height="39.5" rx="5"
        fill="#ffffff" fill-opacity="0.06"/><rect x="484" y="246.5" width="52" height="39.5" rx="5"
        fill="#ffffff" fill-opacity="0.06"/><rect x="544" y="246.5" width="52" height="39.5" rx="5"
        fill="#ffffff" fill-opacity="0.06"/><rect x="604" y="246.5" width="52" height="39.5" rx="5"
        fill="#ffffff" fill-opacity="0.06"/><rect x="664" y="246.5" width="52" height="39.5" rx="5"
        fill="#ffffff" fill-opacity="0.06"/><rect x="724" y="246.5" width="52" height="39.5" rx="5"
        fill="#ffffff" fill-opacity="0.06"/><rect x="424" y="294" width="52" height="39.5" rx="5"
        fill="#ffffff" fill-opacity="0.06"/><rect x="484" y="294" width="52" height="39.5" rx="5"
        fill="#ffffff" fill-opacity="0.06"/><rect x="544" y="294" width="52" height="39.5" rx="5"
        fill="#00ff7a" fill-opacity="0.85"/><rect x="604" y="294" width="52" height="39.5" rx="5"
        fill="#ffffff" fill-opacity="0.06"/><rect x="664" y="294" width="52" height="39.5" rx="5"
        fill="#ffffff" fill-opacity="0.06"/><rect x="724" y="294" width="52" height="39.5" rx="5"
        fill="#ffffff" fill-opacity="0.06"/><rect x="424" y="341.5" width="52" height="39.5" rx="5"
        fill="#ffffff" fill-opacity="0.06"/><rect x="484" y="341.5" width="52" height="39.5" rx="5"
        fill="#ffffff" fill-opacity="0.06"/><rect x="544" y="341.5" width="52" height="39.5" rx="5"
        fill="#ffffff" fill-opacity="0.06"/><rect x="604" y="341.5" width="52" height="39.5" rx="5"
        fill="#ffffff" fill-opacity="0.06"/><rect x="664" y="341.5" width="52" height="39.5" rx="5"
        fill="#00ff7a" fill-opacity="0.85"/><rect x="724" y="341.5" width="52" height="39.5" rx="5"
        fill="#ffffff" fill-opacity="0.06"/><rect x="424" y="389" width="52" height="39.5" rx="5"
        fill="#ffffff" fill-opacity="0.06"/><rect x="484" y="389" width="52" height="39.5" rx="5"
        fill="#ffffff" fill-opacity="0.06"/><rect x="544" y="389" width="52" height="39.5" rx="5"
        fill="#ffffff" fill-opacity="0.06"/><rect x="604" y="389" width="52" height="39.5" rx="5"
        fill="#ffffff" fill-opacity="0.06"/><rect x="664" y="389" width="52" height="39.5" rx="5"
        fill="#ffffff" fill-opacity="0.06"/><rect x="724" y="389" width="52" height="39.5" rx="5"
        fill="#ffffff" fill-opacity="0.06"/>
     <line x1="574" y1="313.75" x2="690" y2="361.25" stroke="#29c6ff" stroke-width="2" stroke-dasharray="4 4"/>
  <rect width="1200" height="675" fill="url(#fade-s)"/>
  <line x1="26" y1="26" x2="48" y2="26" stroke="#ffffff" stroke-opacity="0.25" stroke-width="2"/><line x1="26" y1="26" x2="26" y2="48" stroke="#ffffff" stroke-opacity="0.25" stroke-width="2"/><line x1="1174" y1="26" x2="1152" y2="26" stroke="#ffffff" stroke-opacity="0.25" stroke-width="2"/><line x1="1174" y1="26" x2="1174" y2="48" stroke="#ffffff" stroke-opacity="0.25" stroke-width="2"/><line x1="26" y1="649" x2="48" y2="649" stroke="#ffffff" stroke-opacity="0.25" stroke-width="2"/><line x1="26" y1="649" x2="26" y2="627" stroke="#ffffff" stroke-opacity="0.25" stroke-width="2"/><line x1="1174" y1="649" x2="1152" y2="649" stroke="#ffffff" stroke-opacity="0.25" stroke-width="2"/><line x1="1174" y1="649" x2="1174" y2="627" stroke="#ffffff" stroke-opacity="0.25" stroke-width="2"/>
  <text x="600" y="635" text-anchor="middle"
    font-family="ui-monospace, monospace" font-size="20" letter-spacing="6"
    fill="#ffffff" fill-opacity="0.55">NLP // MEETING SCHEDULER</text>
</svg>