<svg xmlns="http://www.w3.org/2000/svg" viewBox="0 0 1600 900" width="1600" height="900" role="img">
  
  <defs>
    <radialGradient id="glow-h" cx="78%" cy="18%" r="60%">
      <stop offset="0%" stop-color="#e11d34" stop-opacity="0.55"/>
      <stop offset="45%" stop-color="#e11d34" stop-opacity="0.12"/>
      <stop offset="100%" stop-color="#e11d34" stop-opacity="0"/>
    </radialGradient>
    <linearGradient id="fade-h" x1="0" y1="0" x2="0" y2="1">
      <stop offset="0%" stop-color="#0a0708" stop-opacity="0"/>
      <stop offset="100%" stop-color="#0a0708" stop-opacity="0.9"/>
    </linearGradient>
    <pattern id="grid-h" width="40" height="40" patternUnits="userSpaceOnUse">
      <path d="M40 0H0V40" fill="none" stroke="#ffffff" stroke-opacity="0.05" stroke-width="1"/>
    </pattern>
    <filter id="blur-h"><feGaussianBlur stdDeviation="6"/></filter>
  </defs>
  <rect width="1600" height="900" fill="#0a0708"/>
  <rect width="1600" height="900" fill="url(#grid-h)"/>
  <rect width="1600" height="900" fill="url(#glow-h)"/>
  <ellipse cx="1050" cy="330" rx="160" ry="96" fill="none" stroke="#e11d34" stroke-opacity="0.35" stroke-width="1.5" /><ellipse cx="1050" cy="330" rx="260" ry="156" fill="none" stroke="#e11d34" stroke-opacity="0.24999999999999997" stroke-width="1.5" stroke-dasharray="4 12"/><ellipse cx="1050" cy="330" rx="360" ry="216" fill="none" stroke="#e11d34" stroke-opacity="0.14999999999999997" stroke-width="1.5" /><circle cx="1212" cy="330" r="2" fill="#ff3350" fill-opacity="0.25"/><circle cx="1260" cy="362" r="3" fill="#fff" fill-opacity="0.4"/><circle cx="1289" cy="407" r="4" fill="#fff" fill-opacity="0.55"/><circle cx="1293" cy="461" r="2" fill="#fff" fill-opacity="0.7"/><circle cx="1265" cy="520" r="3" fill="#ff3350" fill-opacity="0.25"/><circle cx="1107" cy="423" r="4" fill="#fff" fill-opacity="0.4"/><circle cx="1076" cy="461" r="2" fill="#fff" fill-opacity="0.55"/><circle cx="1017" cy="494" r="3" fill="#fff" fill-opacity="0.7"/><circle cx="935" cy="515" r="4" fill="#ff3350" fill-opacity="0.25"/><circle cx="835" cy="520" r="2" fill="#fff" fill-opacity="0.4"/><circle cx="929" cy="396" r="3" fill="#fff" fill-opacity="0.55"/><circle cx="859" cy="391" r="4" fill="#fff" fill-opacity="0.7"/><circle cx="788" cy="369" r="2" fill="#ff3350" fill-opacity="0.25"/><circle cx="726" cy="330" r="3" fill="#fff" fill-opacity="0.4"/><circle cx="683" cy="275" r="4" fill="#fff" fill-opacity="0.55"/><circle cx="907" cy="284" r="2" fill="#fff" fill-opacity="0.7"/><circle cx="888" cy="242" r="3" fill="#ff3350" fill-opacity="0.25"/><circle cx="897" cy="194" r="4" fill="#fff" fill-opacity="0.4"/><circle cx="935" cy="145" r="2" fill="#fff" fill-opacity="0.55"/><circle cx="1004" cy="101" r="3" fill="#fff" fill-opacity="0.7"/><circle cx="1070" cy="232" r="4" fill="#ff3350" fill-opacity="0.25"/><circle cx="1127" cy="207" r="2" fill="#fff" fill-opacity="0.4"/><circle cx="1203" cy="194" r="3" fill="#fff" fill-opacity="0.55"/><circle cx="1293" cy="199" r="4" fill="#fff" fill-opacity="0.7"/><circle cx="1385" cy="223" r="2" fill="#ff3350" fill-opacity="0.25"/><circle cx="1207" cy="306" r="3" fill="#fff" fill-opacity="0.4"/>
  <circle cx="1050" cy="330" r="60" fill="#ff3350" filter="url(#blur-h)" opacity="0.6"/>
  <circle cx="1050" cy="330" r="22" fill="#fff" opacity="0.9"/>
</svg>